<?xml version="1.0" encoding="UTF-8" standalone="no"?><!DOCTYPE svg PUBLIC "-//W3C//DTD SVG 1.1//EN" "http://www.w3.org/Graphics/SVG/1.1/DTD/svg11.dtd"><svg width="100%" height="100%" viewBox="0 0 427 121" version="1.1" xmlns="http://www.w3.org/2000/svg" xmlns:xlink="http://www.w3.org/1999/xlink" xml:space="preserve" xmlns:serif="http://www.serif.com/" style="fill-rule:evenodd;clip-rule:evenodd;stroke-linejoin:round;stroke-miterlimit:2;"><path d="M115.586,106.218c-0.012,-0.269 -0.103,-2.316 0.193,-3.355c1.069,-3.762 2.876,-4.842 3.292,-5.09c2.235,-1.335 -6.383,-3.448 -7.963,-9.512c-1.352,-5.192 8.254,-28.051 10.434,-31.394c4.749,-7.282 -11.414,8.05 -20.948,21.658c-1.757,2.508 -3.818,6.025 -4.23,6.654c-3.464,5.286 -3.146,7.451 -5.549,5.83c-6.392,-4.313 -7.622,-5.253 -8.098,-6.932c-0.616,-2.174 2.995,-13.29 4.901,-18.452c5.828,-15.785 6.517,-17.032 5.164,-16.681c-0.66,0.171 -13.253,23.776 -18.157,31.084c-12.385,18.454 -18.994,28.723 -25.745,26.34c-13.404,-4.731 -19.489,-7.747 -21.995,-23.578c-0.212,-1.342 -0.87,-0.609 -5.963,-0.128c-12.247,1.156 -20.492,-5.717 -20.788,-6.163c-0.114,-0.171 -0.777,-2.272 2.441,-0.812c1.467,0.665 4.421,4.208 22.604,-2.735c2.089,-0.798 0.988,-1.603 1.334,-3.057c0.7,-2.943 0.273,-2.991 0.94,-5.923c5.587,-24.538 23.85,-45.484 36.537,-47.482c5.898,-0.929 15.669,5.501 17.5,7.446c4.697,4.99 -0.003,25.152 -22.842,42.73c-9.459,7.28 -17.556,10.694 -17.969,10.902c-0.555,0.281 -1.119,0.566 -0.755,7.743c0.267,5.26 2.502,12.29 3.368,13.185c3.301,3.415 9.84,-5.962 9.888,-6.011c3.542,-3.615 4.016,-4.527 10.414,-13.406c0.77,-1.069 8.794,-12.203 9.591,-13.381c5.293,-7.821 17.298,-23.08 18.17,-28.028c0.743,-4.215 7.493,0.215 10.927,2.695c5.379,3.886 -4.823,27.632 -4.912,30.333c-0.095,2.847 1.025,-0.579 1.056,-0.674c0.837,-2.56 3.651,-6.305 4.032,-6.811c9.093,-12.101 15.978,-19.512 22.551,-21.155c4.452,-1.113 11.48,5.242 11.548,5.327c3.416,4.267 -8.855,23.826 -11.815,43.8c-0.056,0.379 -0.57,2.414 1.149,1.415c5.973,-3.47 6.026,-3.312 6.54,-3.619c7.174,-4.282 20.086,-8.382 21.342,-8.725c0.806,-0.221 0.538,-0.736 -3.996,-9.647c-9.134,-17.95 -7.782,-22.195 -7.171,-24.112c2.922,-9.174 11.157,-12.713 11.296,-12.794c6.745,-3.921 15.451,-0.594 17.292,0.832c6.558,5.077 5.081,9.197 4.785,11.519c-0.946,7.409 -12.909,14.721 -17.558,12.447c-3.056,-1.495 -1.319,-2.527 0.096,-3.979c6.331,-6.496 8.477,-15.152 5.244,-16.701c-1.613,-0.773 -6.866,1.93 -8.581,5.37c-1.4,2.808 -1.553,2.675 -1.652,2.925c-3.079,7.76 0.439,10.656 0.708,11.196c0.794,1.596 -0.085,1.982 9.341,20.394c0.581,1.135 1.284,0.944 4.415,1.059c1.475,0.054 0.82,-1.682 1.076,-2.683c0.679,-2.654 0.447,-2.673 0.507,-2.901c2.596,-9.874 6.142,-14.119 6.811,-15.413c2.562,-4.959 11.383,-15.09 17.195,-19.075c8.939,-6.129 12.095,-5.393 15.725,-3.424c2.079,1.128 6.62,5.188 7.141,5.771c0.666,0.746 3.985,4.458 -1.39,12.424c-11.541,17.103 -21.256,21.912 -31.301,27.468c-4.008,2.217 -5.827,1.553 -5.186,5.617c0.563,3.568 9.524,-1.055 18.191,-8.406c10.375,-8.801 15.554,-14.417 16.804,-15.772c8.949,-9.705 20.95,-22.308 22.003,-29.286c0.244,-1.617 2.758,-2.14 7.441,2.691c2.899,2.99 5.596,3.816 -0.29,15.675c-4.419,8.904 2.296,-1.74 10.119,-7.86c3.967,-3.103 6.812,-6.224 9.192,-6.979c1.016,-0.322 7.862,3.352 7.725,7.77c-0.282,9.09 -5.316,15.369 -3.618,15.286c0.522,-0.026 8.835,-11.999 12.705,-15.994c9.567,-9.877 10.045,-10.103 12.759,-11.123c4.377,-1.645 9.603,5.3 10.005,6.014c1.368,2.427 -3.655,13.42 -4.857,16.706c-1.715,4.688 -1.966,4.56 -3.701,9.215c-5.353,14.367 -6.625,13.941 -8.741,24.617c-1.212,6.118 0.099,9.446 -2.227,8.243c-10.723,-5.546 -10.194,-9.607 -10.041,-10.775c1.403,-10.756 5.317,-16.22 12.032,-30.945c2.644,-5.799 2.868,-5.681 3.095,-6.186c2.56,-5.695 3.259,-5.36 3.267,-5.899c0.026,-1.725 -2.597,1.882 -3.551,2.735c-15.588,13.937 -23.29,25.977 -26.352,30.551c-6.519,9.736 -6.747,13.476 -7.869,15.078c-0.343,0.49 -0.793,0.991 -6.836,-3.021c-4.088,-2.714 -3.274,-3.858 -0.026,-13.139c1.814,-5.185 2.044,-5.085 2.196,-5.536c1.666,-4.953 3.015,-6.839 3.108,-7.045c2.479,-5.474 2.562,-5.423 2.76,-5.906c1.781,-4.347 5.126,-9.65 4.837,-9.984c-0.483,-0.56 -0.703,-0.095 -6.911,6.135c-3.459,3.471 -11.522,13.872 -12.482,15.111c-13.344,17.214 -15.233,24 -15.414,24.268c-0.381,0.563 -1.041,1.54 -7.79,-3.385c-3.133,-2.286 0.116,-5.335 2.921,-11.154c3.189,-6.614 8.091,-16.389 8.094,-16.397c1.229,-3.014 3.803,-7.004 3.808,-7.031c0.029,-0.183 -0.496,-0.88 -1.95,1.246c-4.069,5.945 -29.513,35.92 -40.99,38.657c-7.496,1.788 -15.978,-6.893 -16.858,-7.995c-0.802,-1.004 -3.462,-0.996 -2.894,0.728c6.537,19.816 -3.68,28.09 -8.619,30.406c-2.484,1.165 -2.526,0.947 -4.211,1.565c-1.979,0.725 -2.046,0.3 -4.093,0.712c-5.653,1.139 -9.942,0.325 -13.395,0.337c-5.109,0.018 -21.416,-8.245 -22.33,-14.258Zm28.643,7.623c-9.97,2.434 -16.293,-1.706 -16.357,-3.459c-0.159,-4.363 5.021,-7.21 9.303,-11.182c0.578,-0.536 11.244,-7.005 12.481,-7.509c2.242,-0.914 6.913,-3.792 7.082,-2.624c1.62,11.191 -2.006,16.462 -2.816,17.64c-0.558,0.812 -0.132,1.09 -2.307,3.168c-3.088,2.949 -3.377,2.512 -7.387,3.966Zm-70.588,-89.362c0.063,-0.014 1.049,-0.665 1.789,0.092c1.453,1.488 -5.047,13.66 -6.846,16.473c-4.351,6.802 -22.802,26.107 -25.961,25.166c-2.214,-0.659 6.186,-16.08 6.682,-17.261c0.227,-0.539 5.546,-8.891 5.663,-9.032c7.764,-9.334 8.108,-9.016 8.892,-9.508c4.005,-2.517 3.355,-3.662 9.782,-5.931Zm107.481,48.366c0.271,-0.552 0.491,-1.128 0.762,-1.68c0.894,-1.821 6.035,-12.295 15.022,-20.43c10.189,-9.224 15.035,-8.482 13.749,-6.331c-2.196,3.675 -1.993,3.754 -4.51,7.175c-11.445,15.556 -20.089,20.206 -24.807,23.242c-1.678,1.08 -0.605,-1.068 -0.216,-1.976Z" style="fill:white;fill-opacity:1;"/><path d="M353.319,69.916c-1.648,0.69 -2.827,2.762 -10.732,9.942c-7.639,6.938 -7.97,6.482 -15.581,12.359c-12.595,9.723 -18.59,4.551 -25.355,0.66c-1.398,-0.804 -1.065,1.773 -2.449,1.119c-9.789,-4.622 -7.479,-6.819 -7.185,-7.858c2.681,-9.467 3.211,-10.501 3.647,-11.349c5.111,-9.96 13.218,-32.049 15.708,-39.57c3.292,-9.941 3.027,-10.008 3.327,-10.867c0.502,-1.436 5.523,-15.813 6.378,-17.909c1.711,-4.199 -0.1,-4.997 1.584,-6.19c1.874,-1.328 8.186,2.979 8.81,3.405c5.673,3.871 2.791,5.749 -8.235,31.876c-5.895,13.97 -8.895,18.044 -8.585,18.436c0.519,0.657 1.337,-1.266 1.967,-2.158c4.045,-5.727 7.551,-7.894 8.701,-8.888c6.295,-5.439 7.519,-2.976 13.923,2.322c7.018,5.806 3.094,25.473 0.931,28.001c-0.096,0.113 -5.727,7.898 -0.389,1.811c3.904,-4.451 15.402,-16.103 19.334,-22.459c1.698,-2.744 1.424,-2.871 3.374,-5.424c0.502,-0.656 9.772,-22.38 15.369,-29.832c5.309,-7.068 7.07,-11.324 11.009,-8.325c3.787,2.884 5.402,3.021 3.563,7.412c-5.711,13.635 -14.556,24.943 -15.716,26.59c-4.011,5.693 -16.868,41.694 -17.013,42.286c-2.268,9.215 -6.917,21.613 -4.379,27.501c1.27,2.947 -1.833,0.734 -1.948,0.672c-10.545,-5.729 -10.54,-8.916 -6.128,-24.81c2.639,-9.506 2.499,-9.528 6.071,-18.753Zm-47.707,8.784c0.962,-2.754 1.974,-8.386 10.545,-17.732c4.322,-4.713 4.553,-4.467 6.261,-6.281c2.516,-2.671 9.722,-7.243 10.532,-6.808c0.958,0.514 1.405,14.596 -5.747,25.356c-10.586,15.925 -21.966,16.817 -23.408,15.793c-2.081,-1.479 0.215,-5.776 1.816,-10.328Z" style="fill:white;fill-opacity:1;"/><path d="M367.485,73.593c1.323,-9.71 6.935,-19.588 10.059,-23.096c7.288,-8.183 19.16,-20.011 28.685,-13.395c3.936,2.734 10.237,6.848 5.96,14.693c-0.43,0.789 -2.907,5.332 -6.991,8.789c-10.082,8.532 -14.008,11.872 -25.413,14.264c-1.609,0.338 -1.622,3.372 -1.694,9.635c-0.053,4.599 18.865,-3.34 25.81,-8.108c3.449,-2.368 13.122,-10.196 15.91,-12.87c3.124,-2.997 3.965,-6.05 6.151,-2.307c1.64,2.809 -17.484,22.107 -25.996,27.665c-7.248,4.732 -12.517,7.235 -18.835,3.818c-8.625,-4.665 -14.961,-7.929 -13.646,-19.088Zm15.567,-5.989c-0.133,0.081 -2.68,1.637 -1.937,0.191c4.451,-8.67 7.646,-11.879 8.512,-12.748c0.916,-0.92 4.725,-6.145 13.102,-10.732c4.786,-2.621 -0.064,5.482 -1.747,7.492c-8.487,10.136 -13.484,13.144 -17.93,15.796Z" style="fill:white;fill-opacity:1;"/></svg>