<svg xmlns="http://www.w3.org/2000/svg" viewBox="0 0 512 512">
  <rect width="512" height="512" rx="96" fill="#6366F1"/>
  <g transform="translate(30, 60) scale(3.6)" fill="white">
    <!-- "en" cropped from ensemble logo, viewBox approx 0 0 130 121 -->
    <clipPath id="clip"><rect x="0" y="0" width="130" height="121"/></clipPath>
    <g clip-path="url(#clip)">
      <path d="M115.586,106.218c-0.012,-0.269 -0.103,-2.316 0.193,-3.355c1.069,-3.762 2.876,-4.842 3.292,-5.09c2.235,-1.335 -6.383,-3.448 -7.963,-9.512c-1.352,-5.192 8.254,-28.051 10.434,-31.394c4.749,-7.282 -11.414,8.05 -20.948,21.658c-1.757,2.508 -3.818,6.025 -4.23,6.654c-3.464,5.286 -3.146,7.451 -5.549,5.83c-6.392,-4.313 -7.622,-5.253 -8.098,-6.932c-0.616,-2.174 2.995,-13.29 4.901,-18.452c5.828,-15.785 6.517,-17.032 5.164,-16.681c-0.66,0.171 -13.253,23.776 -18.157,31.084c-12.385,18.454 -18.994,28.723 -25.745,26.34c-13.404,-4.731 -19.489,-7.747 -21.995,-23.578c-0.212,-1.342 -0.87,-0.609 -5.963,-0.128c-12.247,1.156 -20.492,-5.717 -20.788,-6.163c-0.114,-0.171 -0.777,-2.272 2.441,-0.812c1.467,0.665 4.421,4.208 22.604,-2.735c2.089,-0.798 0.988,-1.603 1.334,-3.057c0.7,-2.943 0.273,-2.991 0.94,-5.923c5.587,-24.538 23.85,-45.484 36.537,-47.482c5.898,-0.929 15.669,5.501 17.5,7.446c4.697,4.99 -0.003,25.152 -22.842,42.73c-9.459,7.28 -17.556,10.694 -17.969,10.902c-0.555,0.281 -1.119,0.566 -0.755,7.743c0.267,5.26 2.502,12.29 3.368,13.185c3.301,3.415 9.84,-5.962 9.888,-6.011c3.542,-3.615 4.016,-4.527 10.414,-13.406c0.77,-1.069 8.794,-12.203 9.591,-13.381c5.293,-7.821 17.298,-23.08 18.17,-28.028c0.743,-4.215 7.493,0.215 10.927,2.695c5.379,3.886 -4.823,27.632 -4.912,30.333c-0.095,2.847 1.025,-0.579 1.056,-0.674c0.837,-2.56 3.651,-6.305 4.032,-6.811c9.093,-12.101 15.978,-19.512 22.551,-21.155c4.452,-1.113 11.48,5.242 11.548,5.327c3.416,4.267 -8.855,23.826 -11.815,43.8c-0.056,0.379 -0.57,2.414 1.149,1.415Zm28.643,7.623c-9.97,2.434 -16.293,-1.706 -16.357,-3.459c-0.159,-4.363 5.021,-7.21 9.303,-11.182c0.578,-0.536 11.244,-7.005 12.481,-7.509c2.242,-0.914 6.913,-3.792 7.082,-2.624c1.62,11.191 -2.006,16.462 -2.816,17.64c-0.558,0.812 -0.132,1.09 -2.307,3.168c-3.088,2.949 -3.377,2.512 -7.387,3.966Zm-70.588,-89.362c0.063,-0.014 1.049,-0.665 1.789,0.092c1.453,1.488 -5.047,13.66 -6.846,16.473c-4.351,6.802 -22.802,26.107 -25.961,25.166c-2.214,-0.659 6.186,-16.08 6.682,-17.261c0.227,-0.539 5.546,-8.891 5.663,-9.032c7.764,-9.334 8.108,-9.016 8.892,-9.508c4.005,-2.517 3.355,-3.662 9.782,-5.931Z"/>
    </g>
  </g>
</svg>
